<svg width="33" height="7" viewBox="0 0 33 7" fill="none" xmlns="http://www.w3.org/2000/svg">
<path d="M5.62637 5.83269L5.75648 6.01857C5.26391 6.54831 4.63194 6.77135 3.70257 6.77135C1.70443 6.77135 0.589191 5.27507 0.589191 3.51857C0.589191 2.06875 1.32339 0.340127 3.43306 0.340127C4.28808 0.340127 4.87358 0.507414 5.38473 0.683994L5.36614 1.2602L4.61335 0.702581C4.2509 0.581763 3.86057 0.526001 3.48882 0.526001C1.69514 0.526001 1.3141 1.93864 1.3141 3.026C1.3141 5.11708 2.21558 6.58548 3.79551 6.58548C4.62265 6.58548 5.26391 6.30667 5.62637 5.83269ZM14.7649 6.7063L14.6162 5.92563L12.7482 1.02786L12.3857 0.405183H13.2128L15.3318 5.92563L15.75 6.7063H14.7649ZM10.7686 6.7063H10.3225L10.7314 5.92563L12.8132 0.460945H12.9991L10.9173 5.92563L10.7686 6.7063ZM11.3076 4.72674L11.3727 4.55016H14.6441L14.7091 4.72674H11.3076ZM20.4408 6.7063L20.5709 5.92563V1.17656L20.4408 0.405183H21.2865V5.92563L21.4166 6.7063H20.4408ZM21.1192 0.581763V0.405183H21.9557C22.8478 0.405183 24.1861 0.563176 24.1861 1.82712C24.1861 3.07247 22.9036 3.66727 21.1192 3.66727V3.48139C22.9036 3.48139 23.4426 2.91448 23.4426 1.8457C23.4426 0.767637 22.7363 0.581763 21.7791 0.581763H21.1192ZM23.043 6.7063L23.0244 5.92563L22.3646 3.52786L22.9687 3.23046L23.833 5.92563L24.2047 6.7063H23.043ZM30.8828 0.340127C31.4683 0.340127 31.9423 0.433065 32.3791 0.535295L32.4349 1.05574L31.8586 0.628232C31.6263 0.563176 31.3568 0.49812 30.9572 0.49812C30.0278 0.49812 29.656 0.972098 29.656 1.53901C29.656 2.95165 32.5557 2.83083 32.5557 4.85686C32.5557 6.15797 31.5334 6.77135 30.4739 6.77135C30.3159 6.77135 29.7118 6.72489 29.1077 6.54831L29.0334 5.99069L29.6839 6.46466C29.9442 6.53901 30.3252 6.58548 30.4739 6.58548C31.4033 6.58548 31.9423 6.09292 31.9423 5.17284C31.9423 3.69515 29.0055 3.75091 29.0055 1.88288C29.0055 0.804811 29.8512 0.340127 30.8828 0.340127Z" fill="white"/>
</svg>
